{"title":"The Company You Keep 2012 720p BRRIP Xvid AC3-BHRG","uid":8395318,"size":3971036615,"categoryP":"video","categoryS":"hd___movies","magnet":"?xt=urn:btih:9f35db3d82a666db57bec715560ecf76ce2eef5f&amp;dn=The+Company+You+Keep+2012+720p+BRRIP+Xvid+AC3-BHRG&amp;tr=udp%3A%2F%2Ftracker.openbittorrent.com%3A80&amp;tr=udp%3A%2F%2Fopen.demonii.com%3A1337&amp;tr=udp%3A%2F%2Ftracker.coppersurfer.tk%3A6969&amp;tr=udp%3A%2F%2Fexodus.desync.com%3A6969","seeders":1,"leechers":0,"uploader":"Gh0stNet","files":3,"time":1366554895,"description":"File size: 3.67 GiB\nOverall bit rate: 4 208 Kbps\nWriting library: VirtualDub build 30091/release\n\nVideo\nID: 0\nFormat: MPEG-4 Visual\nFormat profile: Advanced Simple@L5\nFormat settings, BVOP: 2\nFormat settings, QPel: No\nFormat settings, GMC: No warppoints\nFormat settings, Matrix: Default (H.263)\nCodec ID: XVID\nCodec ID/Hint: XviD\nBit rate: 3 575 Kbps\nWidth: 1 280 pixels\nHeight: 528 pixels\nDisplay aspect ratio: 2.40:1\nFrame rate: 24.000 fps\nColor space: YUV\nChroma subsampling: 4:2:0\nBit depth: 8 bits\nScan type: Progressive\nCompression mode: Lossy\nBits/(Pixel*Frame): 0.220\nStream size: 3.12 GiB (85%)\nWriting library: XviD 1.2.1 (UTC 2008-12-04)\n\nAudio\nID: 1\nFormat: AC-3\nFormat/Info: Audio Coding 3\nMode extension: CM (complete main)\nFormat settings, Endianness: Big\nCodec ID: 2000\nBit rate mode: Constant\nBit rate: 640 Kbps\nChannel(s): 6 channels\nChannel positions: Front: L C R, Side: L R, LFE\nSampling rate: 48.0 KHz\nBit depth: 16 bits\nCompression mode: Lossy\nStream size: 556 MiB (15%)\nAlignment: Split accross interleaves\nInterleave, duration: 43 ms (1.03 video frame)\nInterleave, preload duration: 500 ms\n\nsource &gt;&gt;&gt;&gt;&gt;&gt;The.Company.You.Keep.2012.1080p.BluRay.x264.DTS-PTpOWeR thanks\n\nsample provided\n\nScreens:\n &lt;a href=&quot;\nhttp://i.imgur.com/x9hhNWm.png&quot; rel=&quot;nofollow&quot; target=&quot;_NEW&quot;&gt;\nhttp://i.imgur.com/x9hhNWm.png&lt;/a&gt; &lt;a href=&quot;\nhttp://i.imgur.com/me9C682.png&quot; rel=&quot;nofollow&quot; target=&quot;_NEW&quot;&gt;\nhttp://i.imgur.com/me9C682.png&lt;/a&gt; &lt;a href=&quot;\nhttp://i.imgur.com/3fyehki.png&quot; rel=&quot;nofollow&quot; target=&quot;_NEW&quot;&gt;\nhttp://i.imgur.com/3fyehki.png&lt;/a&gt; &lt;a href=&quot;\nhttp://i.imgur.com/SJfMRep.png&quot; rel=&quot;nofollow&quot; target=&quot;_NEW&quot;&gt;\nhttp://i.imgur.com/SJfMRep.png&lt;/a&gt; &lt;a href=&quot;\nhttp://i.imgur.com/qTBSECk.png&quot; rel=&quot;nofollow&quot; target=&quot;_NEW&quot;&gt;\nhttp://i.imgur.com/qTBSECk.png&lt;/a&gt;","torrent":{"xt":"urn:btih:9f35db3d82a666db57bec715560ecf76ce2eef5f","amp;dn":"The+Company+You+Keep+2012+720p+BRRIP+Xvid+AC3-BHRG","amp;tr":["udp%3A%2F%2Ftracker.openbittorrent.com%3A80","udp%3A%2F%2Fopen.demonii.com%3A1337","udp%3A%2F%2Ftracker.coppersurfer.tk%3A6969","udp%3A%2F%2Fexodus.desync.com%3A6969"],"infoHash":"9f35db3d82a666db57bec715560ecf76ce2eef5f","infoHashBuffer":{"type":"Buffer","data":[159,53,219,61,130,166,102,219,87,190,199,21,86,14,207,118,206,46,239,95]},"announce":[],"urlList":[]}}